# xmcd
#
# Track frame offsets:
#	150
#	14065
#	28390
#	50908
#	62778
#	79567
#	103101
#	124471
#	151065
#	173134
#	196189
#	222050
#	232681
#
# Disc length: 3297 seconds
#
# Revision: 1
# Processed by: cddbd v1.5.2PL0 Copyright (c) Steve Scherf et al.
# Submitted via: audiograbber 1.83.01
#
DISCID=af0cdf0d
DTITLE=Kevin Quain - Winter In Babylon
DYEAR=1900
DGENRE=
TTITLE0=Hell and High Water
TTITLE1=You Can Always Come Home
TTITLE2=Royal Hotel Blues
TTITLE3=Crazy Little Girl
TTITLE4=Hey Mary
TTITLE5=This Happy Home
TTITLE6=You Old Devil
TTITLE7=Emperor's New Sweater
TTITLE8=The King In Yellow
TTITLE9=The Devil and St. Mary
TTITLE10=Winter In Babylon
TTITLE11=Balm In Gilead
TTITLE12=Moonbeam Blues
EXTD=
EXTT0=
EXTT1=
EXTT2=
EXTT3=
EXTT4=
EXTT5=
EXTT6=
EXTT7=
EXTT8=
EXTT9=
EXTT10=
EXTT11=
EXTT12=
PLAYORDER=
